<svg width="20" height="20" viewBox="0 0 20 20" fill="none" xmlns="http://www.w3.org/2000/svg">
<path d="M17.14 10.936C17.176 10.636 17.2 10.324 17.2 10C17.2 9.676 17.176 9.364 17.128 9.064L19.156 7.48C19.336 7.336 19.384 7.072 19.276 6.868L17.356 3.544C17.236 3.328 16.984 3.256 16.768 3.328L14.38 4.288C13.876 3.904 13.348 3.592 12.76 3.352L12.4 0.808001C12.364 0.568001 12.16 0.400002 11.92 0.400002H8.07998C7.83998 0.400002 7.64799 0.568001 7.61199 0.808001L7.25199 3.352C6.66398 3.592 6.12399 3.916 5.63199 4.288L3.24398 3.328C3.02798 3.244 2.77598 3.328 2.65598 3.544L0.735985 6.868C0.615985 7.084 0.663985 7.336 0.855985 7.48L2.88398 9.064C2.83598 9.364 2.79998 9.688 2.79998 10C2.79998 10.312 2.82398 10.636 2.87198 10.936L0.843984 12.52C0.663984 12.664 0.615985 12.928 0.723985 13.132L2.64398 16.456C2.76398 16.672 3.01598 16.744 3.23198 16.672L5.61998 15.712C6.12398 16.096 6.65198 16.408 7.23998 16.648L7.59999 19.192C7.64798 19.432 7.83998 19.6 8.07998 19.6H11.92C12.16 19.6 12.364 19.432 12.388 19.192L12.748 16.648C13.336 16.408 13.876 16.084 14.368 15.712L16.756 16.672C16.972 16.756 17.224 16.672 17.344 16.456L19.264 13.132C19.384 12.916 19.336 12.664 19.144 12.52L17.14 10.936ZM9.99998 13.6C8.01999 13.6 6.39998 11.98 6.39998 10C6.39998 8.02 8.01999 6.4 9.99998 6.4C11.98 6.4 13.6 8.02 13.6 10C13.6 11.98 11.98 13.6 9.99998 13.6Z" fill="white"/>
</svg>
